<?xml version="1.0" encoding="utf-8"?>
<!-- Generator: Adobe Illustrator 27.5.0, SVG Export Plug-In . SVG Version: 6.00 Build 0)  -->
<svg version="1.1" xmlns="http://www.w3.org/2000/svg" xmlns:xlink="http://www.w3.org/1999/xlink" x="0px" y="0px"
	 viewBox="0 0 500 500" style="enable-background:new 0 0 500 500;" xml:space="preserve">
<g id="BACKGROUND">
	<rect style="fill:#FFFFFF;" width="500" height="500"/>
</g>
<g id="OBJECTS">
	<g>
		<g>
			<g>
				<path style="fill:none;stroke:#020202;stroke-width:3;stroke-linecap:round;stroke-linejoin:round;stroke-miterlimit:10;" d="
					M275.495,151.915c9.6-0.838,21.38-3.844,23.782,0c2.402,3.844-7.207,13.933-16.816,11.771
					c-9.609-2.162-12.492-3.021-12.011-6.675C270.931,153.356,274.325,152.017,275.495,151.915z"/>
				<path style="fill:none;stroke:#020202;stroke-width:3;stroke-linecap:round;stroke-linejoin:round;stroke-miterlimit:10;" d="
					M267.928,133.718c0,0,1.261,5.045,7.567,7.387c6.306,2.342,17.823,6.598,20.352,9.064"/>
				<path style="fill:none;stroke:#020202;stroke-width:3;stroke-linecap:round;stroke-linejoin:round;stroke-miterlimit:10;" d="
					M290.089,191.691c-2.522,12.972-19.689,25.73-31.169,25.225c-11.515-0.507-19.819-7.167-22.521-8.608
					c-2.702-1.441-9.729,2.162-9.729,2.162s0.541,2.342-1.802,4.504c-2.342,2.162-10.45,0.18-10.45,0.18s0.36,3.964-11.891,0
					c-12.252-3.964-21.981-23.422-21.981-23.422s-0.901,2.883-2.703,3.423c-1.802,0.541-10.63-13.332-10.45-36.034
					c0.18-22.701,17.116-33.872,17.116-33.872s-4.144-4.144-3.783-6.846c0.36-2.703,5.225-0.721,5.225-0.721
					s0.721-3.063,9.008-12.792c8.288-9.729,20.72-11.891,20.72-11.891c2.342-3.784,15.134-9.909,17.837-8.648
					c2.702,1.261-2.522,7.927-2.522,7.927s1.982-1.261,6.486-2.702c4.504-1.441,13.693-1.261,13.333,1.081
					c-0.36,2.342-9.909,2.883-9.909,2.883s16.756,1.802,33.331,12.792c16.576,10.99,15.675,27.386,15.675,27.386
					s6.666,5.045,9.009,9.909s2.843,12.132,2.843,12.132"/>
				<path style="fill:none;stroke:#020202;stroke-width:3;stroke-linecap:round;stroke-linejoin:round;stroke-miterlimit:10;" d="
					M286.692,163.895c0,0,4.658,20.27-10.296,29.819c-14.954,9.549-42.694,5.225-47.742-7.567
					c-5.048-12.792,3.42-22.161,8.645-23.422"/>
				<path style="fill:none;stroke:#020202;stroke-width:3;stroke-linecap:round;stroke-linejoin:round;stroke-miterlimit:10;" d="
					M299.596,153.916c0,0,8.256,5.698,9.956,16.561c1.617,10.33-3.415,19.273-13.463,20.894
					c-10.048,1.621-13.548-3.459-13.548-3.459"/>
				<path style="fill:none;stroke:#020202;stroke-width:3;stroke-linecap:round;stroke-linejoin:round;stroke-miterlimit:10;" d="
					M299.651,190.419c0,0,3.41,8.68-2.716,12.483c-2.642,1.641-5.395-1.284-5.395-1.284s-2.173,4.527-6.515,6.149
					c-1.696,0.633-4.469-0.717-4.469-0.717"/>
				<path style="fill:none;stroke:#020202;stroke-width:3;stroke-linecap:round;stroke-linejoin:round;stroke-miterlimit:10;" d="
					M285.026,207.767c0,0,6.204,4.264,8.366,14.173c2.162,9.909,1.201,14.834-0.42,15.735c-1.622,0.901-2.395,0-2.395,0
					s4.196,9.909,1.674,20.539c-2.522,10.63-4.865,12.071-5.946,11.711c-1.081-0.36-1.28-3.423-1.28-3.423
					s-6.107,11.711-8.81,13.152c-2.702,1.441-3.783-2.342-3.783-2.342"/>
				<path style="fill:none;stroke:#020202;stroke-width:3;stroke-linecap:round;stroke-linejoin:round;stroke-miterlimit:10;" d="
					M168.42,172.804c0,0-8.233,6.394-11.356,17.616c-3.123,11.222-8.888,28.278-23.542,49.899
					c-14.654,21.62-28.587,71.587-23.302,115.789c5.285,44.202,24.503,65.341,38.917,69.185c14.414,3.844,22.101,0,21.62,0"/>
				<path style="fill:none;stroke:#020202;stroke-width:3;stroke-linecap:round;stroke-linejoin:round;stroke-miterlimit:10;" d="
					M162.709,421.568c0,0,2.763,2.883,11.531,4.564c8.768,1.682,19.999,0.661,26.485-2.282c6.486-2.943,13.332-6.186,25.404-4.024
					c12.071,2.162,44.682,8.805,58.735,5.382"/>
				<path style="fill:none;stroke:#020202;stroke-width:3;stroke-linecap:round;stroke-linejoin:round;stroke-miterlimit:10;" d="
					M147.695,335.207c0,0,3.844-1.922,11.291-1.201c7.447,0.721,10.33,2.162,10.33,2.162s22.101-10.413,41.319-2.324
					c19.218,8.089,24.263,22.743,32.19,26.587c7.928,3.844,15.375,5.765,20.9,2.402c5.525-3.363,8.798-10.814,20.795-10.814"/>
				<path style="fill:none;stroke:#020202;stroke-width:3;stroke-linecap:round;stroke-linejoin:round;stroke-miterlimit:10;" d="
					M154.662,342.894c0,0,2.643-4.084,14.654-6.726"/>
				<path style="fill:none;stroke:#020202;stroke-width:3;stroke-linecap:round;stroke-linejoin:round;stroke-miterlimit:10;" d="
					M143,251.5c0,0-5.333,46.167,18.989,60.766c14.225,8.539,46.123,11.711,55.852,16.035c9.729,4.324,12.75,20.022,21.26,22.161
					c3.86,0.97,6.486-1.982,7.387-9.189"/>
				<path style="fill:none;stroke:#020202;stroke-width:3;stroke-linecap:round;stroke-linejoin:round;stroke-miterlimit:10;" d="
					M253.495,332.084c0,0,6.273,17.028-10.997,17.793"/>
				<path style="fill:none;stroke:#020202;stroke-width:3;stroke-linecap:round;stroke-linejoin:round;stroke-miterlimit:10;" d="
					M250.365,347.667c0,0,7.654-0.629,8.915-9.997s-3.603-21.801-7.927-28.647c-4.324-6.846-12.252-15.314-22.882-18.918
					c-10.63-3.603-30.268-10.122-30.268-10.122"/>
				<path style="fill:none;stroke:#020202;stroke-width:3;stroke-linecap:round;stroke-linejoin:round;stroke-miterlimit:10;" d="
					M176.943,238.216c0,0,3.063,0.54,9.729,7.747c6.666,7.207,7.567,10.09,7.567,10.09s13.068,15.389,16.623,28.144"/>
				<path style="fill:none;stroke:#020202;stroke-width:3;stroke-linecap:round;stroke-linejoin:round;stroke-miterlimit:10;" d="
					M169.546,178.35c0,0-7.738,16.085-2.156,35.003c2.15,7.285,4.507,9.369,5.948,8.468c0,0-2.561,13.693,2.522,12.071l1.081-1.622
					c0,0,11.088,7.788,12.841,17.227"/>
				<path style="fill:none;stroke:#020202;stroke-width:3;stroke-linecap:round;stroke-linejoin:round;stroke-miterlimit:10;" d="
					M300.55,383.631c0,0,2.661,40.204-14.785,41.501c-13.536,1.006-18.557-8.008-17.657-22.782
					c0.901-14.774,2.162-40.898,19.638-48.285c9.54-4.033,21.08-2.342,23.242,7.207c2.162,9.549-5.946,23.242-16.395,24.503
					s-14.293,4.865-14.293,4.865"/>
				<path style="fill:none;stroke:#020202;stroke-width:3;stroke-linecap:round;stroke-linejoin:round;stroke-miterlimit:10;" d="
					M283.89,356.159c0,0,0-13.175,12.144-13.535c0,0-3.783,5.765-3.145,9.861"/>
				<path style="fill:none;stroke:#020202;stroke-width:3;stroke-linecap:round;stroke-linejoin:round;stroke-miterlimit:10;" d="
					M294.943,352.167c0,0,6.929-10.173,16.397-7.38c0,0-5.965,4.628-5.996,9.025"/>
				<path style="fill:none;stroke:#020202;stroke-width:3;stroke-linecap:round;stroke-linejoin:round;stroke-miterlimit:10;" d="
					M307.926,355.687c0,0,8.648-4.325,12.612,2.882c0,0-6.988,0.158-9.395,3.502"/>
				<path style="fill:none;stroke:#020202;stroke-width:3;stroke-linecap:round;stroke-linejoin:round;stroke-miterlimit:10;" d="
					M304.322,265.181c0,0-12.462,5.886-19.803,12.011c-7.342,6.126-12.627,18.858-16.951,23.302
					c-4.324,4.444-9.055,17.702-9.572,23.925"/>
				<path style="fill:none;stroke:#020202;stroke-width:3;stroke-linecap:round;stroke-linejoin:round;stroke-miterlimit:10;" d="
					M257.996,342.057c0,0,0.684,4.561,5.849,6.243"/>
				<path style="fill:none;stroke:#020202;stroke-width:3;stroke-linecap:round;stroke-linejoin:round;stroke-miterlimit:10;" d="
					M263.844,337.249c0,0-3.602,9.786,1.682,12.628c3.663,1.971,7.881,0,7.881,0"/>
				<path style="fill:none;stroke:#020202;stroke-width:3;stroke-linecap:round;stroke-linejoin:round;stroke-miterlimit:10;" d="
					M294.422,228.072c0,0,25.275,31.464,28.398,43.235c3.123,11.771,1.201,27.386-4.084,36.034
					c-5.285,8.648-31.069,23.838-31.71,25.704c0,0-3.723,10.129-2.507,12.972c1.216,2.843-4.229,6.089-8.723,4.771
					c-4.495-1.317-5.946-6.213-5.225-11.918"/>
				
					<line style="fill:none;stroke:#020202;stroke-width:3;stroke-linecap:round;stroke-linejoin:round;stroke-miterlimit:10;" x1="288.03" y1="269.141" x2="288.03" y2="274.53"/>
				<path style="fill:none;stroke:#020202;stroke-width:3;stroke-linecap:round;stroke-linejoin:round;stroke-miterlimit:10;" d="
					M311.34,314.996c0,0,6.135,5.017,7.576,14.926c1.441,9.909-3.539,16.125-3.539,16.125"/>
				<path style="fill:none;stroke:#020202;stroke-width:3;stroke-linecap:round;stroke-linejoin:round;stroke-miterlimit:10;" d="
					M312.07,336.048c0,0,2.984,4.203,3.281,9.13c0.413,6.841-4.011,9.222-4.011,9.222"/>
				<path style="fill:none;stroke:#020202;stroke-width:3;stroke-linecap:round;stroke-linejoin:round;stroke-miterlimit:10;" d="
					M316.059,321.175c0,0,12.766,3.522,17.271,12.891s4.144,19.683,15.855,22.093s25.224-10.026,30.629-8.492
					c5.405,1.533,5.405,1.533,5.405,1.533s-3.243,50.447-11.351,56.033c-8.108,5.585-19.458,6.486-32.07,3.063
					c-12.612-3.423-16.232-4.324-22.62-3.964c-6.388,0.36-20.514,4.985-20.514,4.985"/>
				<path style="fill:none;stroke:#020202;stroke-width:3;stroke-linecap:round;stroke-linejoin:round;stroke-miterlimit:10;" d="
					M375.388,348.299c0,0,3.044-11.05,15.535-9.849c0,0-5.37,6.268-5.705,10.75"/>
				<path style="fill:none;stroke:#020202;stroke-width:3;stroke-linecap:round;stroke-linejoin:round;stroke-miterlimit:10;" d="
					M370.166,350.641c0,0,1.979-14.232,12.99-15.193c0,0-1.143,3.116-1.012,4.561"/>
				<path style="fill:none;stroke:#020202;stroke-width:3;stroke-linecap:round;stroke-linejoin:round;stroke-miterlimit:10;" d="
					M204.435,97.25c0,0-4.49-4.191-7.613-11.157c-3.123-6.966-7.567-16.095-19.939-12.131
					c-12.372,3.964-28.947,15.374-25.464,36.755c3.483,21.38,18.849,33.221,18.849,33.221"/>
				<path style="fill:none;stroke:#020202;stroke-width:3;stroke-linecap:round;stroke-linejoin:round;stroke-miterlimit:10;" d="
					M187.762,114.277c0,0-1.15-0.678-1.511-9.687c-0.36-9.008-4.681-28.41-20.117-25.556"/>
				<path style="fill:none;stroke:#020202;stroke-width:3;stroke-linecap:round;stroke-linejoin:round;stroke-miterlimit:10;" d="
					M251.275,95.793c0,0,6.203-8.979,7.404-14.024c1.201-5.045,19.442-6.396,28.699,7.012c9.257,13.407-1.331,30.233-1.331,30.233"
					/>
				<path style="fill:none;stroke:#020202;stroke-width:3;stroke-linecap:round;stroke-linejoin:round;stroke-miterlimit:10;" d="
					M266.253,101.694c0,0-0.113-6.472,0-12.478c0.113-6.006,11.991-8.373,11.991-8.373"/>
				<ellipse style="fill:#020202;" cx="280.14" cy="132.697" rx="4.885" ry="8.168"/>
				<ellipse style="fill:#020202;" cx="231.991" cy="132.697" rx="4.885" ry="8.168"/>
			</g>
			<ellipse style="fill:#FFFFFF;" cx="281.888" cy="130.408" rx="1.998" ry="2.095"/>
			<path style="fill:#FFFFFF;" d="M235.553,129.824c0,1.157-0.895,2.095-1.998,2.095c-1.104,0-1.998-0.938-1.998-2.095
				c0-1.157,0.895-2.095,1.998-2.095C234.658,127.729,235.553,128.667,235.553,129.824z"/>
			<path style="fill:none;stroke:#020202;stroke-width:3;stroke-linecap:round;stroke-linejoin:round;stroke-miterlimit:10;" d="
				M288.709,233.27c0.445,2.187,0.847,4.632-0.358,6.51c-0.099,0.154-0.224,0.313-0.404,0.35c-0.274,0.056-0.507-0.194-0.675-0.417
				c-0.512-0.679-1.025-1.358-1.537-2.038c-0.843,1.548-0.776,3.427-1.357,5.092c-0.462,1.323-1.317,2.467-2.16,3.586"/>
			<path style="fill:none;stroke:#020202;stroke-width:3;stroke-linecap:round;stroke-linejoin:round;stroke-miterlimit:10;" d="
				M265.606,270.872c-0.466,3.634-1.883,7.143-4.071,10.082c-0.254-0.929-0.508-1.857-0.762-2.786
				c-0.88,1.567-1.772,3.15-3.001,4.462c-1.229,1.311-2.847,2.343-4.636,2.513"/>
			<path style="fill:none;stroke:#020202;stroke-width:3;stroke-linecap:round;stroke-linejoin:round;stroke-miterlimit:10;" d="
				M241.735,251.5c-0.055,3.824-1.413,7.619-3.798,10.609c-1.131-1.251-1.948-2.785-2.354-4.422
				c-1.044,3.532-3.327,6.684-6.357,8.777"/>
			<path style="fill:none;stroke:#020202;stroke-width:3;stroke-linecap:round;stroke-linejoin:round;stroke-miterlimit:10;" d="
				M191.668,240.333c1.054,4.731,3.488,9.145,6.925,12.563c-0.268-1.362-0.279-2.775-0.031-4.141
				c2.465,4.152,6.407,7.407,10.95,9.042"/>
		</g>
		<g>
			<path style="fill:none;stroke:#020202;stroke-width:3;stroke-linecap:round;stroke-linejoin:round;stroke-miterlimit:10;" d="
				M62.149,231.167c-3.167-3-0.53-14.439,9.167-10.5C81.983,225,71.371,239.903,62.149,231.167z"/>
			<path style="fill:none;stroke:#020202;stroke-width:3;stroke-linecap:round;stroke-linejoin:round;stroke-miterlimit:10;" d="
				M66.629,219.913c0,0-4.992-16.038,1.702-15.163s2.233,15.639,2.233,15.639"/>
			<path style="fill:none;stroke:#020202;stroke-width:3;stroke-linecap:round;stroke-linejoin:round;stroke-miterlimit:10;" d="
				M66.399,233.865c0,0-5.625,11.885-0.75,14.51s5.513-9.454,4.256-14.727"/>
			<path style="fill:none;stroke:#020202;stroke-width:3;stroke-linecap:round;stroke-linejoin:round;stroke-miterlimit:10;" d="
				M72.02,220.986c0,0,3.207-12.736,9.832-11.236s0.746,9.781-6.978,13.641"/>
			<path style="fill:none;stroke:#020202;stroke-width:3;stroke-linecap:round;stroke-linejoin:round;stroke-miterlimit:10;" d="
				M64.274,220.389c0,0-3.125-14.264-9.25-12.764s-1.633,12.567,6.684,16.096"/>
			<path style="fill:none;stroke:#020202;stroke-width:3;stroke-linecap:round;stroke-linejoin:round;stroke-miterlimit:10;" d="
				M71.031,233.266c0,0,2.743,15.984,7.868,13.234s3.66-10.077-5.045-15.289"/>
			<path style="fill:none;stroke:#020202;stroke-width:3;stroke-linecap:round;stroke-linejoin:round;stroke-miterlimit:10;" d="
				M75.783,225.5c0,0,12.579-6.593,14.784,0.033c2.5,7.511-3.536,6.387-15.227,3.24"/>
			<path style="fill:none;stroke:#020202;stroke-width:3;stroke-linecap:round;stroke-linejoin:round;stroke-miterlimit:10;" d="
				M61.54,230.356c0,0-13.323,6.285-9.357,10.839c3.966,4.554,9.466,0.713,12.091-8.429"/>
			<path style="fill:none;stroke:#020202;stroke-width:3;stroke-linecap:round;stroke-linejoin:round;stroke-miterlimit:10;" d="
				M61.232,224.989c0,0-15.763-9.376-15.765,0c-0.002,8.659,15.576,4.007,15.576,4.007"/>
		</g>
		<path style="fill:none;stroke:#020202;stroke-width:3;stroke-linecap:round;stroke-linejoin:round;stroke-miterlimit:10;" d="
			M68.429,382.5c0,0-9.78-73.25-2.78-134.125"/>
		<g>
			<path style="fill:none;stroke:#020202;stroke-width:3;stroke-linecap:round;stroke-linejoin:round;stroke-miterlimit:10;" d="
				M64.274,298.333c0,0,14.099,1.568,26.851-29.192"/>
			<path style="fill:none;stroke:#020202;stroke-width:3;stroke-linecap:round;stroke-linejoin:round;stroke-miterlimit:10;" d="
				M91.126,269.141c0,0-25.715,11.348-17.262,24.603S93.935,288.282,91.126,269.141z"/>
		</g>
		<g>
			<path style="fill:none;stroke:#020202;stroke-width:3;stroke-linecap:round;stroke-linejoin:round;stroke-miterlimit:10;" d="
				M63.125,277.994c0,0-14.098,1.569-26.851-29.192"/>
			<path style="fill:none;stroke:#020202;stroke-width:3;stroke-linecap:round;stroke-linejoin:round;stroke-miterlimit:10;" d="
				M36.274,248.802c0,0,25.715,11.348,17.262,24.603S33.464,267.943,36.274,248.802z"/>
		</g>
		<g>
			<path style="fill:none;stroke:#020202;stroke-width:3;stroke-linecap:round;stroke-linejoin:round;stroke-miterlimit:10;" d="
				M113.1,154.489c-3.167-3-0.531-14.439,9.167-10.5C132.933,148.323,122.321,163.226,113.1,154.489z"/>
			<path style="fill:none;stroke:#020202;stroke-width:3;stroke-linecap:round;stroke-linejoin:round;stroke-miterlimit:10;" d="
				M117.579,143.235c0,0-4.992-16.038,1.702-15.163c6.694,0.875,2.233,15.64,2.233,15.64"/>
			<path style="fill:none;stroke:#020202;stroke-width:3;stroke-linecap:round;stroke-linejoin:round;stroke-miterlimit:10;" d="
				M117.35,157.187c0,0-5.625,11.886-0.75,14.511c4.875,2.625,5.513-9.454,4.256-14.727"/>
			<path style="fill:none;stroke:#020202;stroke-width:3;stroke-linecap:round;stroke-linejoin:round;stroke-miterlimit:10;" d="
				M122.97,144.309c0,0,3.207-12.736,9.832-11.236s0.746,9.781-6.978,13.641"/>
			<path style="fill:none;stroke:#020202;stroke-width:3;stroke-linecap:round;stroke-linejoin:round;stroke-miterlimit:10;" d="
				M115.225,143.712c0,0-3.125-14.265-9.25-12.765s-1.633,12.567,6.684,16.096"/>
			<path style="fill:none;stroke:#020202;stroke-width:3;stroke-linecap:round;stroke-linejoin:round;stroke-miterlimit:10;" d="
				M121.981,156.589c0,0,2.743,15.984,7.868,13.234c5.125-2.75,3.66-10.077-5.045-15.289"/>
			<path style="fill:none;stroke:#020202;stroke-width:3;stroke-linecap:round;stroke-linejoin:round;stroke-miterlimit:10;" d="
				M126.733,148.823c0,0,12.579-6.593,14.784,0.033c2.5,7.511-3.536,6.387-15.227,3.24"/>
			<path style="fill:none;stroke:#020202;stroke-width:3;stroke-linecap:round;stroke-linejoin:round;stroke-miterlimit:10;" d="
				M112.491,153.679c0,0-13.323,6.285-9.357,10.839c3.966,4.554,9.466,0.714,12.091-8.429"/>
			<path style="fill:none;stroke:#020202;stroke-width:3;stroke-linecap:round;stroke-linejoin:round;stroke-miterlimit:10;" d="
				M112.182,148.311c0,0-15.763-9.376-15.765,0c-0.002,8.659,15.576,4.007,15.576,4.007"/>
		</g>
		<path style="fill:none;stroke:#020202;stroke-width:3;stroke-linecap:round;stroke-linejoin:round;stroke-miterlimit:10;" d="
			M116.833,279.982c0,0-7.233-47.41-0.233-108.285"/>
		<g>
			<path style="fill:none;stroke:#020202;stroke-width:3;stroke-linecap:round;stroke-linejoin:round;stroke-miterlimit:10;" d="
				M115.225,221.656c0,0,14.099,1.568,26.851-29.192"/>
			<path style="fill:none;stroke:#020202;stroke-width:3;stroke-linecap:round;stroke-linejoin:round;stroke-miterlimit:10;" d="
				M142.076,192.464c0,0-25.715,11.348-17.262,24.604C133.266,230.323,144.886,211.605,142.076,192.464z"/>
		</g>
		<g>
			<path style="fill:none;stroke:#020202;stroke-width:3;stroke-linecap:round;stroke-linejoin:round;stroke-miterlimit:10;" d="
				M114.076,201.317c0,0-14.098,1.569-26.851-29.192"/>
			<path style="fill:none;stroke:#020202;stroke-width:3;stroke-linecap:round;stroke-linejoin:round;stroke-miterlimit:10;" d="
				M87.224,172.124c0,0,25.715,11.348,17.262,24.604C96.034,209.983,84.414,191.266,87.224,172.124z"/>
		</g>
		<g>
			<path style="fill:none;stroke:#020202;stroke-width:3;stroke-linecap:round;stroke-linejoin:round;stroke-miterlimit:10;" d="
				M356.852,251.383c3.167-3,0.53-14.439-9.167-10.5C337.019,245.217,347.631,260.12,356.852,251.383z"/>
			<path style="fill:none;stroke:#020202;stroke-width:3;stroke-linecap:round;stroke-linejoin:round;stroke-miterlimit:10;" d="
				M352.373,240.13c0,0,4.992-16.038-1.702-15.163c-6.694,0.875-2.233,15.639-2.233,15.639"/>
			<path style="fill:none;stroke:#020202;stroke-width:3;stroke-linecap:round;stroke-linejoin:round;stroke-miterlimit:10;" d="
				M352.602,254.081c0,0,5.625,11.885,0.75,14.51s-5.513-9.454-4.256-14.727"/>
			<path style="fill:none;stroke:#020202;stroke-width:3;stroke-linecap:round;stroke-linejoin:round;stroke-miterlimit:10;" d="
				M346.982,241.203c0,0-3.207-12.736-9.832-11.236s-0.746,9.781,6.978,13.641"/>
			<path style="fill:none;stroke:#020202;stroke-width:3;stroke-linecap:round;stroke-linejoin:round;stroke-miterlimit:10;" d="
				M354.727,240.606c0,0,3.125-14.264,9.25-12.764s1.633,12.567-6.684,16.096"/>
			<path style="fill:none;stroke:#020202;stroke-width:3;stroke-linecap:round;stroke-linejoin:round;stroke-miterlimit:10;" d="
				M347.971,253.483c0,0-2.743,15.984-7.868,13.234s-3.66-10.077,5.045-15.289"/>
			<path style="fill:none;stroke:#020202;stroke-width:3;stroke-linecap:round;stroke-linejoin:round;stroke-miterlimit:10;" d="
				M343.219,245.717c0,0-12.579-6.593-14.784,0.033c-2.5,7.511,3.536,6.387,15.227,3.24"/>
			<path style="fill:none;stroke:#020202;stroke-width:3;stroke-linecap:round;stroke-linejoin:round;stroke-miterlimit:10;" d="
				M357.461,250.573c0,0,13.323,6.285,9.357,10.839c-3.966,4.554-9.466,0.714-12.091-8.429"/>
			<path style="fill:none;stroke:#020202;stroke-width:3;stroke-linecap:round;stroke-linejoin:round;stroke-miterlimit:10;" d="
				M357.77,245.206c0,0,15.763-9.376,15.765,0c0.002,8.659-15.577,4.007-15.577,4.007"/>
		</g>
		<path style="fill:none;stroke:#020202;stroke-width:3;stroke-linecap:round;stroke-linejoin:round;stroke-miterlimit:10;" d="
			M354.71,356.403c1.481-25.62,2.049-58.181-1.358-87.811"/>
		<g>
			<path style="fill:none;stroke:#020202;stroke-width:3;stroke-linecap:round;stroke-linejoin:round;stroke-miterlimit:10;" d="
				M354.727,318.55c0,0-14.098,1.569-26.851-29.192"/>
			<path style="fill:none;stroke:#020202;stroke-width:3;stroke-linecap:round;stroke-linejoin:round;stroke-miterlimit:10;" d="
				M327.876,289.358c0,0,25.715,11.348,17.262,24.603C336.686,327.217,325.066,308.499,327.876,289.358z"/>
		</g>
		<g>
			<path style="fill:none;stroke:#020202;stroke-width:3;stroke-linecap:round;stroke-linejoin:round;stroke-miterlimit:10;" d="
				M355.876,298.211c0,0,14.098,1.569,26.851-29.192"/>
			<path style="fill:none;stroke:#020202;stroke-width:3;stroke-linecap:round;stroke-linejoin:round;stroke-miterlimit:10;" d="
				M382.728,269.019c0,0-25.715,11.348-17.262,24.604C373.918,306.878,385.537,288.16,382.728,269.019z"/>
		</g>
		<g>
			<g>
				<path style="fill:none;stroke:#020202;stroke-width:3;stroke-linecap:round;stroke-linejoin:round;stroke-miterlimit:10;" d="
					M439.062,215.422c3.167-3,0.531-14.439-9.167-10.5C419.229,209.255,429.84,224.158,439.062,215.422z"/>
				<path style="fill:none;stroke:#020202;stroke-width:3;stroke-linecap:round;stroke-linejoin:round;stroke-miterlimit:10;" d="
					M434.583,204.168c0,0,4.992-16.038-1.702-15.163c-6.694,0.875-2.233,15.639-2.233,15.639"/>
				<path style="fill:none;stroke:#020202;stroke-width:3;stroke-linecap:round;stroke-linejoin:round;stroke-miterlimit:10;" d="
					M434.812,218.119c0,0,5.625,11.886,0.75,14.511s-5.513-9.454-4.256-14.727"/>
				<path style="fill:none;stroke:#020202;stroke-width:3;stroke-linecap:round;stroke-linejoin:round;stroke-miterlimit:10;" d="
					M429.192,205.241c0,0-3.207-12.736-9.832-11.236s-0.746,9.781,6.978,13.641"/>
				<path style="fill:none;stroke:#020202;stroke-width:3;stroke-linecap:round;stroke-linejoin:round;stroke-miterlimit:10;" d="
					M436.937,204.644c0,0,3.125-14.264,9.25-12.764s1.633,12.567-6.684,16.096"/>
				<path style="fill:none;stroke:#020202;stroke-width:3;stroke-linecap:round;stroke-linejoin:round;stroke-miterlimit:10;" d="
					M430.18,217.521c0,0-2.743,15.984-7.868,13.234s-3.66-10.077,5.045-15.289"/>
				<path style="fill:none;stroke:#020202;stroke-width:3;stroke-linecap:round;stroke-linejoin:round;stroke-miterlimit:10;" d="
					M425.428,209.755c0,0-12.579-6.593-14.784,0.033c-2.5,7.511,3.536,6.387,15.227,3.24"/>
				<path style="fill:none;stroke:#020202;stroke-width:3;stroke-linecap:round;stroke-linejoin:round;stroke-miterlimit:10;" d="
					M439.671,214.611c0,0,13.323,6.285,9.357,10.839c-3.966,4.554-9.466,0.713-12.091-8.429"/>
				<path style="fill:none;stroke:#020202;stroke-width:3;stroke-linecap:round;stroke-linejoin:round;stroke-miterlimit:10;" d="
					M439.98,209.244c0,0,15.763-9.376,15.765,0c0.002,8.659-15.577,4.007-15.577,4.007"/>
			</g>
			<path style="fill:none;stroke:#020202;stroke-width:3;stroke-linecap:round;stroke-linejoin:round;stroke-miterlimit:10;" d="
				M432.782,366.755c0,0,9.78-73.25,2.78-134.125"/>
			<g>
				<path style="fill:none;stroke:#020202;stroke-width:3;stroke-linecap:round;stroke-linejoin:round;stroke-miterlimit:10;" d="
					M436.937,282.588c0,0-14.098,1.569-26.851-29.192"/>
				<path style="fill:none;stroke:#020202;stroke-width:3;stroke-linecap:round;stroke-linejoin:round;stroke-miterlimit:10;" d="
					M410.086,253.396c0,0,25.715,11.348,17.262,24.604C418.895,291.255,407.276,272.537,410.086,253.396z"/>
			</g>
			<g>
				<path style="fill:none;stroke:#020202;stroke-width:3;stroke-linecap:round;stroke-linejoin:round;stroke-miterlimit:10;" d="
					M438.086,262.249c0,0,14.098,1.569,26.851-29.192"/>
				<path style="fill:none;stroke:#020202;stroke-width:3;stroke-linecap:round;stroke-linejoin:round;stroke-miterlimit:10;" d="
					M464.938,233.057c0,0-25.715,11.348-17.262,24.603C456.128,270.915,467.747,252.198,464.938,233.057z"/>
			</g>
		</g>
		<g>
			<g>
				<path style="fill:none;stroke:#020202;stroke-width:3;stroke-linecap:round;stroke-linejoin:round;stroke-miterlimit:10;" d="
					M384.278,110.363c3.167-3,0.531-14.439-9.167-10.5C364.445,104.196,375.057,119.099,384.278,110.363z"/>
				<path style="fill:none;stroke:#020202;stroke-width:3;stroke-linecap:round;stroke-linejoin:round;stroke-miterlimit:10;" d="
					M379.799,99.109c0,0,4.992-16.038-1.702-15.163c-6.694,0.875-2.233,15.64-2.233,15.64"/>
				<path style="fill:none;stroke:#020202;stroke-width:3;stroke-linecap:round;stroke-linejoin:round;stroke-miterlimit:10;" d="
					M380.028,113.06c0,0,5.625,11.885,0.75,14.51c-4.875,2.625-5.513-9.454-4.256-14.727"/>
				<path style="fill:none;stroke:#020202;stroke-width:3;stroke-linecap:round;stroke-linejoin:round;stroke-miterlimit:10;" d="
					M374.408,100.182c0,0-3.207-12.736-9.832-11.236s-0.746,9.781,6.978,13.641"/>
				<path style="fill:none;stroke:#020202;stroke-width:3;stroke-linecap:round;stroke-linejoin:round;stroke-miterlimit:10;" d="
					M382.153,99.585c0,0,3.125-14.265,9.25-12.765s1.633,12.567-6.684,16.096"/>
				<path style="fill:none;stroke:#020202;stroke-width:3;stroke-linecap:round;stroke-linejoin:round;stroke-miterlimit:10;" d="
					M375.397,112.462c0,0-2.743,15.984-7.868,13.234c-5.125-2.75-3.66-10.077,5.045-15.289"/>
				<path style="fill:none;stroke:#020202;stroke-width:3;stroke-linecap:round;stroke-linejoin:round;stroke-miterlimit:10;" d="
					M370.645,104.696c0,0-12.579-6.593-14.784,0.033c-2.5,7.511,3.536,6.387,15.227,3.24"/>
				<path style="fill:none;stroke:#020202;stroke-width:3;stroke-linecap:round;stroke-linejoin:round;stroke-miterlimit:10;" d="
					M384.887,109.552c0,0,13.323,6.285,9.357,10.839c-3.966,4.554-9.466,0.714-12.091-8.429"/>
				<path style="fill:none;stroke:#020202;stroke-width:3;stroke-linecap:round;stroke-linejoin:round;stroke-miterlimit:10;" d="
					M385.196,104.185c0,0,15.763-9.376,15.765,0c0.002,8.659-15.577,4.007-15.577,4.007"/>
			</g>
			<path style="fill:none;stroke:#020202;stroke-width:3;stroke-linecap:round;stroke-linejoin:round;stroke-miterlimit:10;" d="
				M385.55,332.084c0,0,2.228-143.638-4.772-204.513"/>
			<g>
				<path style="fill:none;stroke:#020202;stroke-width:3;stroke-linecap:round;stroke-linejoin:round;stroke-miterlimit:10;" d="
					M382.153,177.529c0,0-14.098,1.568-26.851-29.192"/>
				<path style="fill:none;stroke:#020202;stroke-width:3;stroke-linecap:round;stroke-linejoin:round;stroke-miterlimit:10;" d="
					M355.302,148.337c0,0,25.715,11.348,17.262,24.603C364.111,186.196,352.492,167.478,355.302,148.337z"/>
			</g>
			<g>
				<path style="fill:none;stroke:#020202;stroke-width:3;stroke-linecap:round;stroke-linejoin:round;stroke-miterlimit:10;" d="
					M383.302,157.19c0,0,14.098,1.569,26.851-29.192"/>
				<path style="fill:none;stroke:#020202;stroke-width:3;stroke-linecap:round;stroke-linejoin:round;stroke-miterlimit:10;" d="
					M410.154,127.998c0,0-25.715,11.348-17.262,24.603C401.344,165.857,412.963,147.139,410.154,127.998z"/>
			</g>
		</g>
		
			<ellipse style="fill:none;stroke:#020202;stroke-width:3;stroke-linecap:round;stroke-linejoin:round;stroke-miterlimit:10;" cx="408.042" cy="401.25" rx="11.314" ry="5.75"/>
		
			<ellipse style="fill:none;stroke:#020202;stroke-width:3;stroke-linecap:round;stroke-linejoin:round;stroke-miterlimit:10;" cx="93.561" cy="409.5" rx="8.835" ry="6"/>
		
			<ellipse style="fill:none;stroke:#020202;stroke-width:3;stroke-linecap:round;stroke-linejoin:round;stroke-miterlimit:10;" cx="206.785" cy="448" rx="17.001" ry="4"/>
		
			<ellipse style="fill:none;stroke:#020202;stroke-width:3;stroke-linecap:round;stroke-linejoin:round;stroke-miterlimit:10;" cx="339.735" cy="442.25" rx="8.235" ry="3.75"/>
		
			<ellipse style="fill:none;stroke:#020202;stroke-width:3;stroke-linecap:round;stroke-linejoin:round;stroke-miterlimit:10;" cx="36.274" cy="336.168" rx="8.235" ry="3.75"/>
	</g>
</g>
</svg>
